<svg id="bb144f48-1407-42d1-b6a0-abc9ed27962d" data-name="original" xmlns="http://www.w3.org/2000/svg" viewBox="0 0 458.08 76.66"><title>connecta-logo</title><path d="M195.62,286.07a27.32,27.32,0,0,1,20,8.25h-.11a4.58,4.58,0,0,1,1.13,1.71,5.64,5.64,0,0,1,.29,1.72,5.77,5.77,0,0,1-1.78,4.24,4.67,4.67,0,0,1-1.94,1.18,7.44,7.44,0,0,1-2.29.35,5.59,5.59,0,0,1-4.14-1.53,16.18,16.18,0,0,0-11.2-4.36,15.45,15.45,0,0,0-6.55,1.42,18.58,18.58,0,0,0-5.49,3.77,18.08,18.08,0,0,0-3.71,5.42,15.81,15.81,0,0,0,.06,12.92,19.6,19.6,0,0,0,3.77,5.55,17.48,17.48,0,0,0,5.44,3.77,13.48,13.48,0,0,0,6.48,1.12,17.5,17.5,0,0,0,11.91-4.84,4.59,4.59,0,0,1,3.54-1.18,5.38,5.38,0,0,1,4,1.89,5.25,5.25,0,0,1,1.89,3.89,5.77,5.77,0,0,1-.36,1.95,3.54,3.54,0,0,1-1.06,1.59,28.49,28.49,0,0,1-9,6.19,27.91,27.91,0,0,1-10.91,2.06,27.09,27.09,0,0,1-11.09-2.3,29.64,29.64,0,0,1-15.27-15.27,26.81,26.81,0,0,1-2.3-11,26,26,0,0,1,2.3-10.78,29.79,29.79,0,0,1,6.25-9.09,30.85,30.85,0,0,1,9.14-6.31A26.26,26.26,0,0,1,195.62,286.07Z" transform="translate(-166.96 -267.67)" fill="#231f20"/><path d="M248.57,287.25a26.32,26.32,0,0,1,10.92,2.3,29.72,29.72,0,0,1,15.21,15.27,28.17,28.17,0,0,1,.06,22.11,29.65,29.65,0,0,1-6.07,9,28.29,28.29,0,0,1-9,6.14,27.83,27.83,0,0,1-11.2,2.24,28.89,28.89,0,0,1-11.09-2.12,27.76,27.76,0,0,1-9.08-6,28.93,28.93,0,0,1-6.19-31.37,27.49,27.49,0,0,1,6.07-9,30,30,0,0,1,9.14-6.13A30.57,30.57,0,0,1,248.57,287.25Zm-.11,11.68a17,17,0,0,0-6.55,1.29,16.7,16.7,0,0,0-5.43,3.61,17.56,17.56,0,0,0-3.65,5.36,16.31,16.31,0,0,0-1.36,6.72,16.14,16.14,0,0,0,1.36,6.54,18.29,18.29,0,0,0,3.65,5.49,17,17,0,0,0,5.43,3.71,16.45,16.45,0,0,0,13.1,0,16.88,16.88,0,0,0,5.41-3.71,18,18,0,0,0,3.66-5.49,16.14,16.14,0,0,0,1.36-6.54,17.45,17.45,0,0,0-16.87-17Z" transform="translate(-166.96 -267.67)" fill="#231f20"/><path d="M308.84,285.71a29.32,29.32,0,0,1,10.86,2.07A27.92,27.92,0,0,1,335,302.22a25.76,25.76,0,0,1,2.35,11V337a5.35,5.35,0,0,1-1.71,4,6.07,6.07,0,0,1-4.06,1.77,5.9,5.9,0,0,1-4.07-1.53,5,5,0,0,1-1.72-3.9V314.26a16.72,16.72,0,0,0-1.29-6.61,17,17,0,0,0-3.6-5.36,17.16,17.16,0,0,0-5.42-3.66,17.59,17.59,0,0,0-13.22-.12A16.64,16.64,0,0,0,297,302a17.56,17.56,0,0,0-3.66,5.19,15.13,15.13,0,0,0-1.35,6.37V337a5.46,5.46,0,0,1-1.77,4.07,5.76,5.76,0,0,1-4.12,1.71,6.12,6.12,0,0,1-4.14-1.53,4.93,4.93,0,0,1-1.77-3.9V314.26a29.29,29.29,0,0,1,2.36-11.09,30,30,0,0,1,6-9.08,27.65,27.65,0,0,1,9-6.14A28.48,28.48,0,0,1,308.84,285.71Z" transform="translate(-166.96 -267.67)" fill="#f78e1e"/><path d="M369.59,285.71a29.23,29.23,0,0,1,10.85,2.07,28,28,0,0,1,15.33,14.44,25.91,25.91,0,0,1,2.35,11V337a5.35,5.35,0,0,1-1.71,4,6.07,6.07,0,0,1-4.07,1.77,5.88,5.88,0,0,1-4.06-1.53,5,5,0,0,1-1.7-3.9V314.26a16.78,16.78,0,0,0-4.91-12,17.16,17.16,0,0,0-5.42-3.66,17,17,0,0,0-6.79-1.35,16.79,16.79,0,0,0-6.42,1.23,16.58,16.58,0,0,0-5.31,3.48,17.53,17.53,0,0,0-3.65,5.19,14.84,14.84,0,0,0-1.36,6.37V337a5.46,5.46,0,0,1-1.77,4.07,5.76,5.76,0,0,1-4.13,1.71,6.14,6.14,0,0,1-4.13-1.53,5,5,0,0,1-1.77-3.9V314.26a29.1,29.1,0,0,1,2.36-11.09,29.79,29.79,0,0,1,6-9.08,27.87,27.87,0,0,1,9-6.14A28.49,28.49,0,0,1,369.59,285.71Z" transform="translate(-166.96 -267.67)" fill="#f78e1e"/><path d="M409.76,294.3a26,26,0,0,1,9.42-6,31.45,31.45,0,0,1,22,0,26,26,0,0,1,9.44,6,5.89,5.89,0,0,1,1.7,4.21,5.6,5.6,0,0,1-2,4.38l-28,28q6.75,1.92,11.8.54a18.06,18.06,0,0,0,8.21-4.54,13.41,13.41,0,0,0,2.59-3.42c.56-1.11,1-2.09,1.42-2.92A5.86,5.86,0,0,1,448,317.4a6.09,6.09,0,0,1,4.43-1.5,5.89,5.89,0,0,1,3.91,1.67,7.76,7.76,0,0,1,1.21,1.63,3.73,3.73,0,0,1,.46,2.2l-.09-.24a19,19,0,0,1-2.41,7.42,34.84,34.84,0,0,1-5,6.67,24.49,24.49,0,0,1-9.25,6.33,29.25,29.25,0,0,1-11,2.05,30.32,30.32,0,0,1-11-2.17,28.05,28.05,0,0,1-9.55-6.29,26.86,26.86,0,0,1-6.08-9.34,29.28,29.28,0,0,1-2.05-11,32.57,32.57,0,0,1,2-11A26,26,0,0,1,409.76,294.3Zm27.93,3.93a24.27,24.27,0,0,0-10.58-.35,16.89,16.89,0,0,0-9,4.76,17.1,17.1,0,0,0-4.89,9.21,22.23,22.23,0,0,0,.46,10.22.7.7,0,0,0,.17.5L438,298.39a.1.1,0,0,1-.16,0Z" transform="translate(-166.96 -267.67)" fill="#231f20"/><path d="M490.12,286.07a27.36,27.36,0,0,1,20.05,8.25h-.12a4.43,4.43,0,0,1,1.12,1.71,5.37,5.37,0,0,1,.3,1.72,5.8,5.8,0,0,1-1.78,4.24,4.69,4.69,0,0,1-1.93,1.18,7.57,7.57,0,0,1-2.31.35,5.57,5.57,0,0,1-4.13-1.53,16.18,16.18,0,0,0-11.2-4.36,15.38,15.38,0,0,0-6.54,1.42,18.32,18.32,0,0,0-5.49,3.77,17.58,17.58,0,0,0-3.72,5.42,15.81,15.81,0,0,0,.06,12.92,19.6,19.6,0,0,0,3.77,5.55,17.48,17.48,0,0,0,5.44,3.77,13.46,13.46,0,0,0,6.48,1.12A17.51,17.51,0,0,0,502,326.76a4.59,4.59,0,0,1,3.54-1.18,5.38,5.38,0,0,1,4,1.89,5.29,5.29,0,0,1,1.89,3.89,5.77,5.77,0,0,1-.36,1.95,3.63,3.63,0,0,1-1.06,1.59,28.27,28.27,0,0,1-9,6.19,28,28,0,0,1-10.91,2.06,27.18,27.18,0,0,1-11.1-2.3,29.64,29.64,0,0,1-15.27-15.27,27,27,0,0,1-2.29-11,26.18,26.18,0,0,1,2.29-10.78,30,30,0,0,1,6.26-9.09,30.85,30.85,0,0,1,9.14-6.31A26.26,26.26,0,0,1,490.12,286.07Z" transform="translate(-166.96 -267.67)" fill="#231f20"/><path d="M520.9,267.67a5.62,5.62,0,0,1,4.31,1.83,7.31,7.31,0,0,1,1.93,4.54v10.62h27.25a5.32,5.32,0,0,1,4.13,1.82,6.11,6.11,0,0,1,1.65,4.19,6,6,0,0,1-1.77,4.24,5.34,5.34,0,0,1-4,1.9H527.14V314a16.87,16.87,0,0,0,1.31,6.55,17.13,17.13,0,0,0,3.59,5.48,17.34,17.34,0,0,0,5.43,3.77,15.84,15.84,0,0,0,6.66,1.42,18.1,18.1,0,0,0,6.79-1.12,15.49,15.49,0,0,0,4.89-3.13h-.13a6.44,6.44,0,0,1,8.74.12,5.39,5.39,0,0,1,1.66,4.13,7.19,7.19,0,0,1-.31,1.95,3.61,3.61,0,0,1-1.12,1.71h.12a30.51,30.51,0,0,1-9,6.13,26.64,26.64,0,0,1-10.67,2.12,32.92,32.92,0,0,1-11.63-2.06,28.68,28.68,0,0,1-9.55-5.9,29.07,29.07,0,0,1-6.54-9.2,29.74,29.74,0,0,1-2.59-12V274a6.57,6.57,0,0,1,1.71-4.37A5.55,5.55,0,0,1,520.9,267.67Z" transform="translate(-166.96 -267.67)" fill="#231f20"/><path d="M599.8,286.19a27.5,27.5,0,0,1,10,3.06,28.24,28.24,0,0,1,8,6.31,30,30,0,0,1,5.31,8.73A27.84,27.84,0,0,1,625,314.61v22.76a5.44,5.44,0,0,1-1.77,4.07,5.6,5.6,0,0,1-4,1.71,13.56,13.56,0,0,1-1.83-.12,5.11,5.11,0,0,1-1.95-.65,5.92,5.92,0,0,1-1.72-1.47,4.62,4.62,0,0,1-.88-2.59,23.29,23.29,0,0,0-2.12,1.06c-1,.55-1.76.94-2.24,1.18a27.25,27.25,0,0,1-2.71,1.06c-.94.32-1.93.63-2.95.95a33.48,33.48,0,0,1-6.36.58,27.24,27.24,0,0,1-15.81-4.78,29.43,29.43,0,0,1-10.38-12.32,28.44,28.44,0,0,1-1.83-5.48,27.28,27.28,0,0,1-.65-6,26.38,26.38,0,0,1,.65-5.89,31.91,31.91,0,0,1,1.83-5.55,28.82,28.82,0,0,1,10.38-12.38,27.49,27.49,0,0,1,15.81-4.72h1.65A13.45,13.45,0,0,1,599.8,286.19Zm-3.43,45.41a17,17,0,0,0,6.55-1.3,16.86,16.86,0,0,0,5.43-3.59,17.72,17.72,0,0,0,3.65-5.38,16.44,16.44,0,0,0,1.37-6.72,16.12,16.12,0,0,0-1.37-6.43,16.81,16.81,0,0,0-3.71-5.43,19.48,19.48,0,0,0-5.43-3.7,15.06,15.06,0,0,0-6.49-1.42A15.46,15.46,0,0,0,590,299a18.17,18.17,0,0,0-5.36,3.72,17.58,17.58,0,0,0-3.72,5.42,16.29,16.29,0,0,0,0,13.1,17.54,17.54,0,0,0,3.84,5.36,19.29,19.29,0,0,0,5.42,3.67A15.15,15.15,0,0,0,596.37,331.6Z" transform="translate(-166.96 -267.67)" fill="#231f20"/></svg>