<?xml version="1.0" encoding="UTF-8"?>
<svg id="bb144f48-1407-42d1-b6a0-abc9ed27962d" xmlns="http://www.w3.org/2000/svg" version="1.1" viewBox="0 0 458.1 76.7">
  <defs>
    <style>
      .cls-1 {
        fill: #f78e1e;
      }

      .cls-1, .cls-2 {
        stroke-width: 0px;
      }

      .cls-2 {
        fill: #fff;
      }
    </style>
  </defs>
  <path class="cls-2" d="M28.7,18.4c7.5-.1,14.8,2.9,20,8.2h-.1c.5.5.9,1.1,1.1,1.7.2.6.3,1.1.3,1.7,0,1.6-.6,3.1-1.8,4.2-.5.5-1.2,1-1.9,1.2-.7.2-1.5.4-2.3.4-1.5,0-3-.5-4.1-1.5-3-2.8-7-4.4-11.2-4.4-2.3,0-4.5.5-6.6,1.4-2,.9-3.9,2.2-5.5,3.8-1.6,1.6-2.8,3.4-3.7,5.4-1.8,4.1-1.8,8.8,0,12.9.9,2.1,2.2,3.9,3.8,5.5,1.6,1.6,3.4,2.9,5.4,3.8,2,.9,4.3,1.3,6.5,1.1,4.4,0,8.7-1.8,11.9-4.8,1-.9,2.2-1.3,3.5-1.2,1.5,0,3,.7,4,1.9,1.2,1,1.8,2.4,1.9,3.9,0,.7-.1,1.3-.4,2-.2.6-.6,1.2-1.1,1.6-2.6,2.6-5.6,4.7-9,6.2-3.5,1.4-7.2,2.1-10.9,2.1-3.8,0-7.6-.8-11.1-2.3-6.8-3-12.3-8.4-15.3-15.3C.7,54.4,0,50.7,0,46.9c0-3.7.8-7.4,2.3-10.8,1.5-3.4,3.6-6.5,6.2-9.1,2.6-2.6,5.7-4.8,9.1-6.3,3.5-1.6,7.2-2.4,11-2.3Z"/>
  <path class="cls-2" d="M81.6,19.6c3.8,0,7.5.8,10.9,2.3,6.8,3,12.2,8.5,15.2,15.3,3,7.1,3.1,15,0,22.1-1.5,3.3-3.5,6.4-6.1,9-2.6,2.6-5.6,4.7-9,6.1-3.5,1.5-7.4,2.3-11.2,2.2-3.8,0-7.6-.7-11.1-2.1-3.4-1.4-6.5-3.4-9.1-6-8.2-8.3-10.6-20.6-6.2-31.4,1.4-3.4,3.5-6.4,6.1-9,2.6-2.6,5.7-4.7,9.1-6.1,3.6-1.5,7.4-2.3,11.2-2.4ZM81.5,31.3c-2.2,0-4.5.4-6.6,1.3-2,.8-3.9,2.1-5.4,3.6-1.5,1.5-2.8,3.4-3.6,5.4-.9,2.1-1.4,4.4-1.4,6.7,0,2.3.5,4.5,1.4,6.5.9,2,2.1,3.9,3.6,5.5,1.6,1.6,3.4,2.8,5.4,3.7,4.2,1.8,8.9,1.8,13.1,0,2-.9,3.9-2.1,5.4-3.7,1.5-1.6,2.8-3.5,3.7-5.5.9-2.1,1.4-4.3,1.4-6.5-.2-9.2-7.6-16.7-16.9-17h-.1Z"/>
  <path class="cls-1" d="M141.9,18c3.7,0,7.4.7,10.9,2.1,6.8,2.6,12.3,7.8,15.3,14.4,1.6,3.4,2.4,7.2,2.4,11v23.8c0,1.5-.6,3-1.7,4-1.1,1.1-2.5,1.7-4.1,1.8-1.5,0-3-.5-4.1-1.5-1.1-1-1.8-2.4-1.7-3.9v-23.1c0-2.3-.4-4.5-1.3-6.6-.8-2-2.1-3.8-3.6-5.4-1.6-1.6-3.4-2.8-5.4-3.7-4.2-1.8-9-1.8-13.2-.1-2,.8-3.7,2-5.3,3.5-1.5,1.5-2.8,3.3-3.7,5.2-.9,2-1.4,4.2-1.4,6.4v23.4c0,1.5-.6,3-1.8,4.1-1.1,1.1-2.6,1.7-4.1,1.7-1.5,0-3-.5-4.1-1.5-1.2-1-1.8-2.4-1.8-3.9v-23.1c0-3.8.9-7.6,2.4-11.1,1.4-3.4,3.5-6.4,6-9.1,2.6-2.6,5.6-4.7,9-6.1,3.6-1.5,7.4-2.3,11.3-2.2Z"/>
  <path class="cls-1" d="M202.6,18c3.7,0,7.4.7,10.9,2.1,6.8,2.6,12.3,7.8,15.3,14.4,1.6,3.5,2.4,7.2,2.4,11v23.8c0,1.5-.6,3-1.7,4-1.1,1.1-2.5,1.7-4.1,1.8-1.5,0-3-.5-4.1-1.5-1.1-1-1.7-2.4-1.7-3.9v-23.1c0-4.5-1.7-8.8-4.9-12-1.6-1.6-3.4-2.8-5.4-3.7-2.1-.9-4.5-1.4-6.8-1.4-2.2,0-4.4.4-6.4,1.2-2,.8-3.8,2-5.3,3.5-1.5,1.5-2.8,3.3-3.6,5.2-.9,2-1.4,4.2-1.4,6.4v23.5c0,1.5-.6,3-1.8,4.1-1.1,1.1-2.6,1.7-4.1,1.7-1.5,0-3-.5-4.1-1.5-1.1-1-1.8-2.4-1.8-3.9v-23.1c0-3.8.9-7.6,2.4-11.1,1.4-3.4,3.5-6.4,6-9.1,2.6-2.6,5.6-4.7,9-6.1,3.6-1.5,7.4-2.3,11.3-2.2Z"/>
  <path class="cls-2" d="M242.8,26.6c2.7-2.7,5.9-4.7,9.4-6,7.1-2.6,14.9-2.6,22,0,3.5,1.3,6.8,3.3,9.4,6,1.1,1.1,1.7,2.6,1.7,4.2,0,1.7-.7,3.3-2,4.4l-28,28c4.5,1.3,8.4,1.5,11.8.5,3.1-.8,5.9-2.3,8.2-4.5,1-1,1.9-2.1,2.6-3.4.6-1.1,1-2.1,1.4-2.9.2-1.2.8-2.3,1.7-3.1,1.2-1.1,2.8-1.6,4.4-1.5,1.5,0,2.9.6,3.9,1.7.5.5.9,1,1.2,1.6.4.7.5,1.4.5,2.2v-.2c-.4,2.6-1.2,5.1-2.5,7.4-1.4,2.4-3.1,4.7-5,6.7-2.6,2.8-5.7,5-9.2,6.3-3.5,1.4-7.2,2.1-11,2-3.8,0-7.5-.8-11-2.2-3.6-1.4-6.8-3.6-9.5-6.3-2.7-2.7-4.7-5.8-6.1-9.3-1.4-3.5-2.1-7.2-2-11,0-3.8.7-7.5,2-11,1.3-3.6,3.4-6.8,6.2-9.5ZM270.7,30.6c-3.5-.9-7.1-1-10.6-.4-3.4.6-6.6,2.3-9,4.8-2.5,2.5-4.3,5.7-4.9,9.2-.6,3.4-.5,6.9.5,10.2,0,.2,0,.4.2.5l24.1-24.2s0,0-.1,0,0,0,0,0v-.2Z"/>
  <path class="cls-2" d="M323.2,18.4c7.5-.1,14.8,2.9,20,8.2h-.1c.5.5.9,1.1,1.1,1.7.2.6.3,1.1.3,1.7,0,1.6-.6,3.1-1.8,4.2-.5.5-1.2,1-1.9,1.2-.7.2-1.5.4-2.3.4-1.5,0-3-.5-4.1-1.5-3-2.8-7-4.4-11.2-4.4-2.3,0-4.5.5-6.5,1.4-2,.9-3.9,2.2-5.5,3.8-1.6,1.6-2.8,3.4-3.7,5.4-1.8,4.1-1.8,8.8,0,12.9.9,2.1,2.2,3.9,3.8,5.5,1.6,1.6,3.4,2.9,5.4,3.8,2,.9,4.3,1.3,6.5,1.1,4.4,0,8.7-1.8,11.9-4.8,1-.9,2.2-1.3,3.5-1.2,1.5,0,3,.7,4,1.9,1.2,1,1.8,2.4,1.9,3.9,0,.7-.1,1.3-.4,2-.2.6-.6,1.2-1.1,1.6-2.6,2.6-5.6,4.7-9,6.2-3.5,1.4-7.2,2.1-10.9,2.1-3.8,0-7.6-.8-11.1-2.3-6.8-3-12.3-8.4-15.3-15.3-1.5-3.5-2.3-7.2-2.3-11,0-3.7.8-7.4,2.3-10.8,1.5-3.4,3.6-6.5,6.3-9.1,2.6-2.6,5.7-4.8,9.1-6.3,3.5-1.6,7.2-2.4,11-2.3Z"/>
  <path class="cls-2" d="M353.9,0c1.6,0,3.2.6,4.3,1.8,1.1,1.2,1.8,2.8,1.9,4.5v10.6h27.2c1.6,0,3.1.6,4.1,1.8,1.1,1.1,1.7,2.6,1.7,4.2,0,1.6-.6,3.1-1.8,4.2-1,1.2-2.5,1.9-4,1.9h-27.3v17.2c0,2.2.4,4.5,1.3,6.5.8,2,2.1,3.9,3.6,5.5,1.6,1.6,3.4,2.9,5.4,3.8,2.1,1,4.4,1.4,6.7,1.4,2.3,0,4.6-.3,6.8-1.1,1.8-.7,3.5-1.8,4.9-3.1h-.1c2.5-2.2,6.3-2.2,8.7.1,1.1,1.1,1.7,2.6,1.7,4.1,0,.7-.1,1.3-.3,2-.2.7-.6,1.3-1.1,1.7h.1c-2.6,2.6-5.7,4.6-9,6.1-3.4,1.4-7,2.2-10.7,2.1-4,0-7.9-.7-11.6-2.1-3.5-1.3-6.8-3.3-9.5-5.9-2.8-2.6-5-5.7-6.5-9.2-1.7-3.8-2.6-7.9-2.6-12V6.3c0-1.6.6-3.2,1.7-4.4C350.6.7,352.3,0,353.9,0Z"/>
  <path class="cls-2" d="M432.8,18.5c3.5.4,6.9,1.4,10,3.1,3,1.6,5.7,3.7,8,6.3,2.3,2.6,4.1,5.5,5.3,8.7,1.3,3.3,1.9,6.8,1.9,10.3v22.8c0,1.5-.6,3-1.8,4.1-1,1.1-2.5,1.7-4,1.7-.6,0-1.2,0-1.8-.1-.7,0-1.4-.3-2-.6-.7-.4-1.2-.9-1.7-1.5-.5-.8-.9-1.7-.9-2.6-.7.3-1.4.7-2.1,1.1-1,.5-1.8.9-2.2,1.2-.9.4-1.8.8-2.7,1.1-.9.3-1.9.6-3,1-2.1.4-4.2.6-6.4.6-5.6,0-11.2-1.6-15.8-4.8-4.5-3.1-8.1-7.3-10.4-12.3-.8-1.8-1.4-3.6-1.8-5.5-.4-2-.7-4-.7-6,0-2,.2-4,.7-5.9.4-1.9,1.1-3.8,1.8-5.5,2.2-5,5.8-9.3,10.4-12.4,4.7-3.2,10.2-4.8,15.8-4.7h1.7c.6,0,1.1,0,1.7.2ZM429.4,63.9c2.2,0,4.5-.4,6.5-1.3,2-.8,3.9-2.1,5.4-3.6,1.5-1.6,2.8-3.4,3.7-5.4.9-2.1,1.4-4.4,1.4-6.7,0-2.2-.5-4.4-1.4-6.4-.9-2-2.1-3.9-3.7-5.4-1.6-1.5-3.4-2.8-5.4-3.7-2-1-4.2-1.4-6.5-1.4-2.2,0-4.4.5-6.4,1.4-2,.9-3.8,2.2-5.4,3.7-1.6,1.6-2.8,3.4-3.7,5.4-1.8,4.2-1.8,8.9,0,13.1.9,2,2.2,3.8,3.8,5.4,1.6,1.5,3.4,2.8,5.4,3.7,1.9.9,4.1,1.3,6.2,1.3Z"/>
</svg>
